{"accessors":[{"name":"Box20179_1_positions","componentType":5126,"count":4926,"min":[1394.7349853515625,-0.0017999999690800905,-1895.36279296875],"max":[2041.895263671875,494.9862060546875,-1226.959228515625],"type":"VEC3","bufferView":0,"byteOffset":0},{"name":"Box20179_1_normals","componentType":5126,"count":4926,"min":[-0.9908000230789185,-1,-0.996999979019165],"max":[0.9958999752998352,1,0.996999979019165],"type":"VEC3","bufferView":0,"byteOffset":59112},{"name":"Box20179_1_texcoords","componentType":5126,"count":4926,"min":[-0.0017000000225380063,0],"max":[1,1],"type":"VEC2","bufferView":1,"byteOffset":0},{"name":"Box20179_1_0_indices","componentType":5123,"count":8025,"min":[0],"max":[4925],"type":"SCALAR","bufferView":2,"byteOffset":0}],"asset":{"generator":"obj2gltf","version":"2.0"},"buffers":[{"name":"Cheese","byteLength":173684,"uri":"data:application/octet-stream;base64,"}],"bufferViews":[{"name":"bufferView_0","buffer":0,"byteLength":118224,"byteOffset":0,"byteStride":12,"target":34962},{"name":"bufferView_1","buffer":0,"byteLength":39408,"byteOffset":118224,"byteStride":8,"target":34962},{"name":"bufferView_2","buffer":0,"byteLength":16052,"byteOffset":157632,"target":34963}],"materials":[{"name":"_crayfishdiffuse","pbrMetallicRoughness":{"baseColorFactor":[0.8706,1,0,1],"metallicFactor":0,"roughnessFactor":0.97},"emissiveFactor":[0,0,0],"alphaMode":"OPAQUE","doubleSided":false}],"meshes":[{"name":"Box20179_1","primitives":[{"attributes":{"POSITION":0,"NORMAL":1,"TEXCOORD_0":2},"indices":3,"material":0,"mode":4}]}],"nodes":[{"name":"Box20179","mesh":0}],"scene":0,"scenes":[{"nodes":[0]}]}
