{
  "accessors": [
    {
      "name": "pSphere5_1_positions",
      "componentType": 5126,
      "count": 2222,
      "min": [
        -3.9849789142608643,
        -0.42528799176216125,
        -12.393824577331543
      ],
      "max": [
        3.997730016708374,
        5.201608180999756,
        6.995615005493164
      ],
      "type": "VEC3",
      "bufferView": 0,
      "byteOffset": 0
    },
    {
      "name": "pSphere5_1_normals",
      "componentType": 5126,
      "count": 2222,
      "min": [
        -0.9999960064888,
        -0.9999939799308777,
        -1
      ],
      "max": [
        0.9999920129776001,
        0.9999930262565613,
        0.9997490048408508
      ],
      "type": "VEC3",
      "bufferView": 0,
      "byteOffset": 26664
    },
    {
      "name": "pSphere5_1_texcoords",
      "componentType": 5126,
      "count": 2222,
      "min": [
        0,
        0
      ],
      "max": [
        1,
        1
      ],
      "type": "VEC2",
      "bufferView": 1,
      "byteOffset": 0
    },
    {
      "name": "pSphere5_1_0_indices",
      "componentType": 5123,
      "count": 11142,
      "min": [
        0
      ],
      "max": [
        2221
      ],
      "type": "SCALAR",
      "bufferView": 2,
      "byteOffset": 0
    }
  ],
  "asset": {
    "generator": "obj2gltf",
    "version": "2.0"
  },
  "buffers": [
    {
      "name": "mouse",
      "byteLength": 93388,
      "uri": "data:application/octet-stream;base64,"
    }
  ],
  "bufferViews": [
    {
      "name": "bufferView_0",
      "buffer": 0,
      "byteLength": 53328,
      "byteOffset": 0,
      "byteStride": 12,
      "target": 34962
    },
    {
      "name": "bufferView_1",
      "buffer": 0,
      "byteLength": 17776,
      "byteOffset": 53328,
      "byteStride": 8,
      "target": 34962
    },
    {
      "name": "bufferView_2",
      "buffer": 0,
      "byteLength": 22284,
      "byteOffset": 71104,
      "target": 34963
    }
  ],
  "materials": [
    {
      "name": "initialShadingGroup",
      "pbrMetallicRoughness": {
        "baseColorFactor": [
          0.5,
          0.5,
          0.5,
          1
        ],
        "metallicFactor": 0,
        "roughnessFactor": 1
      },
      "emissiveFactor": [
        0,
        0,
        0
      ],
      "alphaMode": "OPAQUE",
      "doubleSided": false
    }
  ],
  "meshes": [
    {
      "name": "pSphere5_1",
      "primitives": [
        {
          "attributes": {
            "POSITION": 0,
            "NORMAL": 1,
            "TEXCOORD_0": 2
          },
          "indices": 3,
          "material": 0,
          "mode": 4
        }
      ]
    }
  ],
  "nodes": [
    {
      "name": "pSphere5",
      "mesh": 0
    }
  ],
  "scene": 0,
  "scenes": [
    {
      "nodes": [
        0
      ]
    }
  ]
}
